<svg xmlns="http://www.w3.org/2000/svg" width="20" height="20" viewBox="0 0 20 20">
  <path d="M9.5 20c-2.538 0-4.923-.988-6.718-2.782S0 13.038 0 10.501c0-2.538.988-4.923 2.782-6.718S6.962 1 9.5 1c2.538 0 4.923.988 6.718 2.783S19 7.963 19 10.501s-.988 4.923-2.782 6.717C14.424 19.012 12.038 20 9.5 20zm0-18C4.813 2 1 5.813 1 10.5S4.813 19 9.5 19s8.5-3.813 8.5-8.5S14.187 2 9.5 2z"/>
  <path d="M7.5 14.5c-.128 0-.256-.049-.354-.146l-3-3c-.195-.195-.195-.512 0-.707s.512-.195.707 0l2.646 2.646 6.646-6.646c.195-.195.512-.195.707 0s.195.512 0 .707l-7 7c-.098.098-.226.146-.354.146z"/>
</svg>
